<svg id="Layer_1" data-name="Layer 1" xmlns="http://www.w3.org/2000/svg" viewBox="0 0 1024 1024"><defs><style>.cls-1{fill:#fff;}</style></defs><path id="Path_2520" data-name="Path 2520" class="cls-1" d="M835.33,835.34H703.46V628.82c0-49.25-.88-112.64-68.59-112.64-68.68,0-79.19,53.65-79.19,109.05v210.1H423.8V410.63H550.4v58h1.77a138.77,138.77,0,0,1,124.92-68.6c133.66,0,158.3,87.92,158.3,202.29ZM275,352.58A76.53,76.53,0,1,1,351.52,276,76.53,76.53,0,0,1,275,352.58h0m65.94,482.76h-132V410.63h132ZM901.08,77.06H142.66A65,65,0,0,0,77,141.21V902.77A65,65,0,0,0,142.66,967H901.08A65.12,65.12,0,0,0,967,902.77V141.16A65.09,65.09,0,0,0,901.08,77"/></svg>